<svg width="1531" height="1057" xmlns="http://www.w3.org/2000/svg" xmlns:xlink="http://www.w3.org/1999/xlink" overflow="hidden"><defs><clipPath id="clip0"><rect x="3753" y="1123" width="1531" height="1057"/></clipPath><clipPath id="clip1"><rect x="3753" y="1124" width="1530" height="1055"/></clipPath><clipPath id="clip2"><rect x="3753" y="1124" width="1530" height="1055"/></clipPath><clipPath id="clip3"><rect x="3753" y="1124" width="1530" height="1055"/></clipPath><clipPath id="clip4"><rect x="3753" y="1124" width="1530" height="1055"/></clipPath><clipPath id="clip5"><rect x="3753" y="1124" width="1530" height="1055"/></clipPath><clipPath id="clip6"><rect x="4006" y="1268" width="1230" height="712"/></clipPath><clipPath id="clip7"><rect x="3753" y="1124" width="1530" height="1055"/></clipPath><clipPath id="clip8"><rect x="3753" y="1124" width="1530" height="1055"/></clipPath><clipPath id="clip9"><rect x="3753" y="1124" width="1530" height="1055"/></clipPath><clipPath id="clip10"><rect x="3753" y="1124" width="1530" height="1055"/></clipPath><clipPath id="clip11"><rect x="3753" y="1124" width="1530" height="1055"/></clipPath><clipPath id="clip12"><rect x="3753" y="1124" width="1530" height="1055"/></clipPath><clipPath id="clip13"><rect x="3753" y="1124" width="1530" height="1055"/></clipPath><clipPath id="clip14"><rect x="3753" y="1124" width="1530" height="1055"/></clipPath><clipPath id="clip15"><rect x="3753" y="1124" width="1530" height="1055"/></clipPath><clipPath id="clip16"><rect x="3753" y="1124" width="1530" height="1055"/></clipPath><clipPath id="clip17"><rect x="3753" y="1124" width="1530" height="1055"/></clipPath><clipPath id="clip18"><rect x="3753" y="1124" width="1530" height="1055"/></clipPath><clipPath id="clip19"><rect x="3753" y="1124" width="1530" height="1055"/></clipPath><clipPath id="clip20"><rect x="3753" y="1124" width="1530" height="1055"/></clipPath><clipPath id="clip21"><rect x="3753" y="1124" width="1530" height="1055"/></clipPath><clipPath id="clip22"><rect x="3753" y="1124" width="1530" height="1055"/></clipPath><clipPath id="clip23"><rect x="3753" y="1124" width="1530" height="1055"/></clipPath><clipPath id="clip24"><rect x="3753" y="1124" width="1530" height="1055"/></clipPath><clipPath id="clip25"><rect x="3753" y="1124" width="1530" height="1055"/></clipPath><clipPath id="clip26"><rect x="3753" y="1124" width="1530" height="1055"/></clipPath></defs><g clip-path="url(#clip0)" transform="translate(-3753 -1123)"><path d="M3754 1169.82C3754 1144.51 3774.51 1124 3799.82 1124L5237.18 1124C5262.49 1124 5283 1144.51 5283 1169.82L5283 2133.18C5283 2158.49 5262.49 2179 5237.18 2179L3799.82 2179C3774.51 2179 3754 2158.49 3754 2133.18Z" fill="#FFFFFF" fill-rule="evenodd"/><g clip-path="url(#clip1)"><rect x="4006" y="1268" width="1227" height="709" fill="#FFFFFF"/></g><g clip-path="url(#clip2)"><path d="M4006 1953.06 5233 1953.06M4006 1929.06 5233 1929.06M4006 1906.06 5233 1906.06M4006 1882.06 5233 1882.06M4006 1835.06 5233 1835.06M4006 1811.06 5233 1811.06M4006 1788.06 5233 1788.06M4006 1764.06 5233 1764.06M4006 1717.06 5233 1717.06M4006 1693.06 5233 1693.06M4006 1670.05 5233 1670.05M4006 1646.05 5233 1646.05M4006 1599.05 5233 1599.05M4006 1575.05 5233 1575.05M4006 1552.05 5233 1552.05M4006 1528.05 5233 1528.05M4006 1481.05 5233 1481.05M4006 1457.05 5233 1457.05M4006 1434.05 5233 1434.05M4006 1410.05 5233 1410.05M4006 1363.04 5233 1363.04M4006 1339.04 5233 1339.04M4006 1316.04 5233 1316.04M4006 1292.04 5233 1292.04" stroke="#CCCCCC" stroke-width="2.29167" stroke-linejoin="round" stroke-miterlimit="10" stroke-opacity="0" fill="none"/></g><g clip-path="url(#clip3)"><path d="M4006 1859.06 5233 1859.06M4006 1741.06 5233 1741.06M4006 1623.05 5233 1623.05M4006 1504.05 5233 1504.05M4006 1386.05 5233 1386.05M4006 1268 5233 1268" stroke="#B7B7B7" stroke-width="2.29167" stroke-linejoin="round" stroke-miterlimit="10" fill="none"/></g><g clip-path="url(#clip4)"><path d="M0 0 0.000360892 709" stroke="#898989" stroke-width="2.29167" stroke-linejoin="round" stroke-miterlimit="10" fill="none" fill-rule="evenodd" transform="matrix(1 0 0 -1 4006 1977)"/></g><g clip-path="url(#clip5)"><path d="M4006 1977 5233 1977" stroke="#898989" stroke-width="2.29167" stroke-linejoin="round" stroke-miterlimit="10" fill="none" fill-rule="evenodd"/></g><g clip-path="url(#clip6)"><path d="M4061.5 1386.5 4173.64 1386.5 4284.64 1534.5 4396.64 1534.5 4507.65 1534.5 4619.65 1534.5 4730.66 1534.5 4842.66 1534.5 4954.66 1534.5 5065.67 1534.5 5177.5 1534.5" stroke="#4285F4" stroke-width="6.875" stroke-linecap="round" stroke-linejoin="round" stroke-miterlimit="10" fill="none"/></g><g clip-path="url(#clip7)"><text font-family="Arial,Arial_MSFontService,sans-serif" font-weight="400" font-size="46" transform="matrix(1 0 0 1 3877.5 1992)">0.00</text></g><g clip-path="url(#clip8)"><text font-family="Arial,Arial_MSFontService,sans-serif" font-weight="400" font-size="46" transform="matrix(1 0 0 1 3877.5 1874)">0.20</text></g><g clip-path="url(#clip9)"><text font-family="Arial,Arial_MSFontService,sans-serif" font-weight="400" font-size="46" transform="matrix(1 0 0 1 3877.5 1756)">0.40</text></g><g clip-path="url(#clip10)"><text font-family="Arial,Arial_MSFontService,sans-serif" font-weight="400" font-size="46" transform="matrix(1 0 0 1 3877.5 1638)">0.60</text></g><g clip-path="url(#clip11)"><text font-family="Arial,Arial_MSFontService,sans-serif" font-weight="400" font-size="46" transform="matrix(1 0 0 1 3877.5 1520)">0.80</text></g><g clip-path="url(#clip12)"><text font-family="Arial,Arial_MSFontService,sans-serif" font-weight="400" font-size="46" transform="matrix(1 0 0 1 3877.5 1402)">1.00</text></g><g clip-path="url(#clip13)"><text font-family="Arial,Arial_MSFontService,sans-serif" font-weight="400" font-size="46" transform="matrix(1 0 0 1 3877.5 1283)">1.20</text></g><g clip-path="url(#clip14)"><text font-family="Arial,Arial_MSFontService,sans-serif" font-weight="400" font-size="46" transform="matrix(1 0 0 1 4030.05 2046)">0.1</text></g><g clip-path="url(#clip15)"><text font-family="Arial,Arial_MSFontService,sans-serif" font-weight="400" font-size="46" transform="matrix(1 0 0 1 4141.58 2046)">0.2</text></g><g clip-path="url(#clip16)"><text font-family="Arial,Arial_MSFontService,sans-serif" font-weight="400" font-size="46" transform="matrix(1 0 0 1 4253.12 2046)">0.3</text></g><g clip-path="url(#clip17)"><text font-family="Arial,Arial_MSFontService,sans-serif" font-weight="400" font-size="46" transform="matrix(1 0 0 1 4364.65 2046)">0.4</text></g><g clip-path="url(#clip18)"><text font-family="Arial,Arial_MSFontService,sans-serif" font-weight="400" font-size="46" transform="matrix(1 0 0 1 4476.19 2046)">0.5</text></g><g clip-path="url(#clip19)"><text font-family="Arial,Arial_MSFontService,sans-serif" font-weight="400" font-size="46" transform="matrix(1 0 0 1 4587.72 2046)">0.6</text></g><g clip-path="url(#clip20)"><text font-family="Arial,Arial_MSFontService,sans-serif" font-weight="400" font-size="46" transform="matrix(1 0 0 1 4699.26 2046)">0.7</text></g><g clip-path="url(#clip21)"><text font-family="Arial,Arial_MSFontService,sans-serif" font-weight="400" font-size="46" transform="matrix(1 0 0 1 4810.79 2046)">0.8</text></g><g clip-path="url(#clip22)"><text font-family="Arial,Arial_MSFontService,sans-serif" font-weight="400" font-size="46" transform="matrix(1 0 0 1 4922.33 2046)">0.9</text></g><g clip-path="url(#clip23)"><text font-family="Arial,Arial_MSFontService,sans-serif" font-weight="400" font-size="46" transform="matrix(1 0 0 1 5033.86 2046)">1.0</text></g><g clip-path="url(#clip24)"><text font-family="Arial,Arial_MSFontService,sans-serif" font-weight="400" font-size="46" transform="matrix(6.12323e-17 -1 1 6.12323e-17 3854.03 1717)">Precision</text></g><g clip-path="url(#clip25)"><text font-family="Arial,Arial_MSFontService,sans-serif" font-weight="400" font-size="46" transform="matrix(1 0 0 1 4555.92 2112)">Recall</text></g><g clip-path="url(#clip26)"><text fill="#757575" font-family="Arial,Arial_MSFontService,sans-serif" font-weight="400" font-size="46" transform="matrix(1 0 0 1 4393.77 1201)">Lore Search</text></g><path d="M3754 1169.82C3754 1144.51 3774.51 1124 3799.82 1124L5237.18 1124C5262.49 1124 5283 1144.51 5283 1169.82L5283 2133.18C5283 2158.49 5262.49 2179 5237.18 2179L3799.82 2179C3774.51 2179 3754 2158.49 3754 2133.18Z" stroke="#898989" stroke-width="2.29167" stroke-linejoin="round" stroke-miterlimit="10" fill="none" fill-rule="evenodd"/></g></svg>